<?xml version="1.0" encoding="UTF-8" standalone="no"?>
<!DOCTYPE svg PUBLIC "-//W3C//DTD SVG 1.1//EN" "http://www.w3.org/Graphics/SVG/1.1/DTD/svg11.dtd">
<svg width="100%" height="100%" viewBox="0 0 512 512" version="1.1" xmlns="http://www.w3.org/2000/svg" xmlns:xlink="http://www.w3.org/1999/xlink" xml:space="preserve" xmlns:serif="http://www.serif.com/" style="fill-rule:evenodd;clip-rule:evenodd;stroke-linejoin:round;stroke-miterlimit:2;">
    <rect x="0" y="0" width="512" height="512" style="fill:rgb(21,112,220);fill-rule:nonzero;"/>
    <g transform="matrix(1,0,0,1,250,250)">
        <g transform="matrix(42.6667,0,0,42.6667,-250.564,-251.091)">
            <path d="M1.5,1.5L1.5,4.5L10.5,4.5L10.5,1.5L1.5,1.5ZM9.5,2.5L2.5,2.5L2.5,3.5L9.5,3.5L9.5,2.5ZM1.5,5.5L1.5,10.5L5.5,10.5L5.5,5.5L1.5,5.5ZM4.5,6.5L2.5,6.5L2.5,9.5L4.5,9.5L4.5,6.5Z" style="fill:white;"/>
        </g>
        <g transform="matrix(42.6667,0,0,42.6667,-250.564,-251.091)">
            <path d="M10.5,5.5L6.5,5.5L6.5,6.5L10.5,6.5L10.5,5.5ZM6.5,7.5L10.5,7.5L10.5,8.5L6.5,8.5L6.5,7.5ZM10.5,9.5L6.5,9.5L6.5,10.5L10.5,10.5L10.5,9.5Z" style="fill:white;fill-rule:nonzero;"/>
        </g>
    </g>
</svg>
